<?xml version="1.0" encoding="UTF-8"?>
<svg id="_レイヤー_2" data-name="レイヤー 2" xmlns="http://www.w3.org/2000/svg" width="218.97" height="107.65" viewBox="0 0 218.97 107.65">
  <defs>
    <style>
      .cls-1 {
        fill: #f7f7f7;
      }
    </style>
  </defs>
  <g id="_デザイン" data-name="デザイン">
    <path class="cls-1" d="M83.86,66.34v25.66c-10.83,1.62-17.15,2.23-26.78,2.23-21.25,0-35.92-16.33-35.92-39.08S35.84,15.42,57.08,15.42c13.19,0,26.93,7.22,26.93,20.06h21.15C105.02,11.46,86.43-.14,52.6,0,30.4.1,0,15.09,0,55.16s30.4,52.49,52.6,52.49c14.72,0,20.31-.55,25.74-.98,6.66-.52,13.05-1.44,20.26-2.8,3.66-.69,6.85-2.42,6.85-6.54v-45.17l-43.45.03v14.17h21.87ZM142.45,63.6h32.98c7.94.03,9.86,7.7,12.83,21.84,2.14,10.15,2.43,11.8,4.91,20.11h25.8c-1.85-3.49-5.28-12.52-6.88-19.38-4.57-19.64-6.64-29.66-16.96-31.72v-.27c8.35-3.13,13.47-12.43,13.47-25.55,0-12.16-10.51-26.63-41.61-26.63h-45.26v103.55h20.73v-41.95ZM142.45,17.69h23.13c13.26,0,20.63,4.57,20.99,12.52.52,11.61-5.96,18.03-20.99,18.03h-23.13v-30.55Z"/>
  </g>
</svg>